Coordinates
version=1
nRows=21
nColumns=34
inDegrees=no

Units are S.I. units (second, meters, Newtons, ...)
If the header above contains a line with 'inDegrees', this indicates whether rotational values are in degrees (yes) or radians (no).

endheader
time	pelvis_tilt	pelvis_list	pelvis_rotation	pelvis_tx	pelvis_ty	pelvis_tz	hip_flexion_r	hip_adduction_r	hip_rotation_r	knee_angle_r	ankle_angle_r	subtalar_angle_r	mtp_angle_r	hip_flexion_l	hip_adduction_l	hip_rotation_l	knee_angle_l	ankle_angle_l	subtalar_angle_l	mtp_angle_l	lumbar_extension	lumbar_bending	lumbar_rotation	arm_flex_r	arm_add_r	arm_rot_r	elbow_flex_r	pro_sup_r	arm_flex_l	arm_add_l	arm_rot_l	elbow_flex_l	pro_sup_l
0	0.122111	-0.0404707	0.0191889	-0.215886	0.908592	-0.258173	0.36878	0.0274422	-0.236572	0.0865653	0.279598	0.187829	-0.0126983	-0.460862	-0.00961848	-0.157245	0.163126	0.360789	0.127817	-0.0119455	-0.321073	0.0795816	-0.143849	-0.0496137	-0.155617	-0.062944	0.605921	1.82825	0.0816303	-0.176785	0.147287	0.745471	1.79869
0.01	0.120369	-0.0451739	0.0212706	-0.198303	0.913979	-0.258331	0.365279	0.0338867	-0.216303	0.0930447	0.24876	0.144353	-0.0127051	-0.466233	-0.0167259	-0.165214	0.183153	0.359168	0.129034	-0.0119426	-0.310865	0.096116	-0.136574	-0.0588354	-0.155528	-0.0820149	0.603325	1.82468	0.0824977	-0.169069	0.150834	0.730423	1.80132
0.02	0.117407	-0.050589	0.0226501	-0.180832	0.918483	-0.258395	0.364839	0.0407218	-0.198541	0.104056	0.217378	0.103862	-0.0127118	-0.467841	-0.0248547	-0.171784	0.206721	0.350324	0.125608	-0.0119397	-0.299414	0.113159	-0.130526	-0.0667724	-0.155891	-0.09875	0.599446	1.82162	0.0815922	-0.161626	0.153172	0.715925	1.80351
0.03	0.113248	-0.0567411	0.0233296	-0.163487	0.922168	-0.258358	0.367406	0.0479824	-0.183224	0.119536	0.185563	0.066291	-0.0127185	-0.46563	-0.034063	-0.177053	0.233953	0.334259	0.117643	-0.0119368	-0.286755	0.130728	-0.125672	-0.0734292	-0.156698	-0.113204	0.594312	1.81906	0.0789568	-0.15446	0.154363	0.701962	1.80527
0.04	0.107961	-0.0636782	0.0233113	-0.146289	0.925109	-0.258211	0.372809	0.0557455	-0.170212	0.139313	0.153711	0.0315263	-0.0127252	-0.459485	-0.0444863	-0.181252	0.26514	0.310966	0.105394	-0.0119339	-0.272998	0.148853	-0.121919	-0.0788158	-0.157926	-0.125529	0.588012	1.81702	0.0747071	-0.147585	0.154569	0.688506	1.80661
0.05	0.101681	-0.0714547	0.0225927	-0.12927	0.927395	-0.257944	0.380713	0.0641158	-0.159299	0.163061	0.122601	-0.000555981	-0.0127319	-0.44928	-0.0563121	-0.184701	0.300672	0.280426	0.0892546	-0.0119311	-0.258367	0.167562	-0.11911	-0.0829467	-0.159533	-0.135979	0.58072	1.81552	0.0690348	-0.141021	0.154044	0.675533	1.80758
0.06	0.0946232	-0.0801074	0.0211645	-0.112466	0.929125	-0.257544	0.390594	0.073203	-0.150238	0.190257	0.0933794	-0.0300427	-0.0127386	-0.434948	-0.0697307	-0.187746	0.340918	0.24268	0.0697051	-0.0119282	-0.243208	0.186847	-0.117039	-0.0858371	-0.16146	-0.144887	0.5727	1.81459	0.0621934	-0.134798	0.15309	0.663051	1.80829
0.07	0.087071	-0.0896319	0.0190156	-0.095919	0.930405	-0.257001	0.401731	0.0830988	-0.142759	0.22015	0.0674006	-0.0569524	-0.0127453	-0.416548	-0.0848786	-0.190679	0.386094	0.197951	0.0472633	-0.0119253	-0.227979	0.206643	-0.115464	-0.087502	-0.163631	-0.152606	0.564294	1.81423	0.0544745	-0.128952	0.151997	0.651117	1.80889
0.08	0.0793584	-0.099964	0.0161408	-0.0796684	0.931346	-0.256308	0.413238	0.0938539	-0.136583	0.251745	0.045993	-0.0812201	-0.012752	-0.394295	-0.101785	-0.193678	0.436146	0.14682	0.0224377	-0.0119224	-0.213211	0.226807	-0.114136	-0.0879569	-0.165957	-0.159448	0.555896	1.81445	0.0461848	-0.123526	0.150987	0.639847	1.8096
0.09	0.0718379	-0.110965	0.0125551	-0.0637518	0.932057	-0.25546	0.424128	0.105454	-0.131445	0.283851	0.0302151	-0.102695	-0.0127588	-0.368568	-0.120327	-0.196767	0.490689	0.0903866	-0.00430614	-0.0119195	-0.199465	0.247101	-0.112814	-0.087223	-0.168338	-0.165625	0.547906	1.81521	0.0376272	-0.118564	0.15018	0.6294	1.81068
0.1	0.0648465	-0.122414	0.00830691	-0.0482006	0.932641	-0.254463	0.433406	0.11779	-0.127115	0.315167	0.0206806	-0.121149	-0.0127655	-0.33988	-0.140203	-0.199803	0.548993	0.0303735	-0.0325658	-0.0119166	-0.187266	0.267192	-0.111288	-0.0853335	-0.170671	-0.171214	0.540686	1.81648	0.0290897	-0.114119	0.149592	0.619955	1.81238
0.11	0.0586731	-0.134008	0.00349175	-0.033039	0.93319	-0.253329	0.440172	0.130639	-0.123422	0.34442	0.017487	-0.136305	-0.0127722	-0.308818	-0.160922	-0.202481	0.610035	-0.0308668	-0.0620065	-0.0119138	-0.177058	0.286654	-0.109391	-0.0823412	-0.172855	-0.176146	0.534516	1.81825	0.0208371	-0.110241	0.149148	0.611681	1.81494
0.12	0.0535331	-0.145374	-0.00174075	-0.0182833	0.933781	-0.252078	0.443722	0.143649	-0.120266	0.370509	0.0202485	-0.147882	-0.0127789	-0.275972	-0.181828	-0.20438	0.672591	-0.0904888	-0.0923484	-0.0119109	-0.169148	0.304992	-0.107016	-0.078324	-0.174799	-0.180225	0.529563	1.82056	0.0131068	-0.106983	0.148731	0.604698	1.81849
0.13	0.0495525	-0.156093	-0.00718776	-0.00394186	0.934475	-0.250738	0.44362	0.156362	-0.117611	0.39262	0.0282007	-0.155662	-0.0127856	-0.241868	-0.202148	-0.205023	0.735354	-0.145427	-0.123337	-0.011908	-0.163683	0.321676	-0.104127	-0.0733866	-0.176431	-0.183166	0.525859	1.82357	0.0061021	-0.104394	0.148226	0.599063	1.82304
0.14	0.0467624	-0.165741	-0.0126046	0.00998371	0.935312	-0.249343	0.439727	0.16825	-0.115469	0.410297	0.0403391	-0.159563	-0.0127923	-0.206912	-0.221071	-0.203956	0.797042	-0.192768	-0.154703	-0.0119051	-0.160638	0.33619	-0.100756	-0.0676594	-0.177706	-0.184649	0.523303	1.82753	-1.38855e-05	-0.102518	0.147564	0.594752	1.82845
0.15	0.0451025	-0.173935	-0.0177267	0.023499	0.936316	-0.247925	0.432183	0.17879	-0.11386	0.423437	0.0555538	-0.159695	-0.0127991	-0.17137	-0.237837	-0.200821	0.856495	-0.230156	-0.186112	-0.0119022	-0.159821	0.34809	-0.0969999	-0.0612932	-0.178614	-0.184374	0.521674	1.83282	-0.00512689	-0.101384	0.146745	0.591671	1.83446
0.16	0.0444331	-0.180374	-0.0222981	0.0366167	0.937494	-0.246516	0.421359	0.187537	-0.112787	0.432227	0.0727414	-0.156387	-0.0128058	-0.135373	-0.25182	-0.195416	0.912727	-0.256129	-0.217133	-0.0118993	-0.160903	0.357048	-0.0930072	-0.054452	-0.179181	-0.182107	0.520669	1.83987	-0.00917886	-0.101002	0.145832	0.589665	1.84066
0.17	0.0445526	-0.184872	-0.0261034	0.0493561	0.93884	-0.245141	0.40778	0.194181	-0.112199	0.437058	0.0908861	-0.150179	-0.0128125	-0.0989525	-0.262589	-0.18772	0.964942	-0.270309	-0.247205	-0.0118964	-0.163455	0.36289	-0.0889521	-0.0473049	-0.179471	-0.177709	0.519951	1.84905	-0.0121729	-0.101355	0.144923	0.588544	1.84661
0.18	0.045221	-0.187374	-0.0289954	0.0617445	0.940337	-0.243819	0.392034	0.198594	-0.111985	0.43841	0.109115	-0.141764	-0.0128192	-0.0620935	-0.269933	-0.177898	1.01253	-0.27339	-0.275642	-0.0118935	-0.166999	0.365606	-0.0850101	-0.0400181	-0.17958	-0.171153	0.519205	1.86057	-0.0141733	-0.102387	0.144104	0.588113	1.85188
0.19	0.0461869	-0.187945	-0.0309144	0.073815	0.941963	-0.242557	0.374697	0.200828	-0.111974	0.436765	0.126733	-0.131901	-0.0128259	-0.0247876	-0.273855	-0.16627	1.05504	-0.266932	-0.301652	-0.0118906	-0.171054	0.365337	-0.0813318	-0.0327475	-0.179626	-0.162511	0.518184	1.87436	-0.0152992	-0.104006	0.143392	0.588187	1.85614
0.2	0.0472122	-0.186749	-0.0318949	0.0856056	0.943691	-0.241356	0.356266	0.201091	-0.111961	0.432545	0.143238	-0.121315	-0.0128327	0.0129208	-0.274534	-0.153274	1.09214	-0.253021	-0.324397	-0.0118877	-0.17519	0.362343	-0.0780228	-0.0256333	-0.179735	-0.151935	0.51675	1.89	-0.0157119	-0.106079	0.142693	0.588621	1.85914
